<svg width="209" height="69" viewBox="0 0 209 69" fill="none" xmlns="http://www.w3.org/2000/svg">
<rect width="208.173" height="68.1639" rx="34.0819" fill="#121212"/>
<path d="M29.5711 35.2094L32.9543 38.5925L38.5928 30.6985M34.082 20.1195C30.8485 23.1818 26.4821 25.06 21.6771 25.06C21.6008 25.06 21.5246 25.0595 21.4484 25.0586C20.865 26.833 20.5494 28.729 20.5494 30.6986C20.5494 39.1061 26.2997 46.1706 34.082 48.1736C41.8642 46.1706 47.6145 39.1061 47.6145 30.6986C47.6145 28.729 47.2989 26.833 46.7155 25.0586C46.6394 25.0595 46.5631 25.06 46.4868 25.06C41.6818 25.06 37.3155 23.1818 34.082 20.1195Z" stroke="#10B981" stroke-width="2.25542" stroke-linecap="round" stroke-linejoin="round"/>
<path d="M76.2549 28.4729V25.7766H58.8311V43.5819H61.8835V36.4344H74.0419V33.7127H61.8835V28.4729H76.2549ZM81.4369 27.7352C82.5307 27.7352 83.3192 26.9976 83.3192 26.0819C83.3192 25.1153 82.5307 24.4285 81.4369 24.4285C80.3431 24.4285 79.5292 25.1153 79.5292 26.0819C79.5292 26.9976 80.3431 27.7352 81.4369 27.7352ZM82.9376 29.6429H79.987V43.5819H82.9376V29.6429ZM90.5126 43.5819V35.8748C91.4538 33.2549 93.9974 31.9576 97.1006 31.9576V29.3631C94.2263 29.3631 91.6318 30.5841 90.5126 32.8224V29.6429H87.5366V43.5819H90.5126ZM101.07 37.2738H114.907C114.958 37.1212 114.984 36.9431 114.984 36.6124C114.984 31.7287 111.728 29.1088 106.717 29.1088C101.35 29.1088 98.1449 32.0085 98.1449 36.6379C98.1449 41.2164 101.35 44.1161 106.92 44.1161C110.176 44.1161 112.593 43.3276 114.5 41.6234L112.771 39.7665C111.244 41.1146 109.642 41.776 107.073 41.776C103.563 41.776 101.35 40.3007 101.07 37.2738ZM106.742 31.4489C109.489 31.4489 111.473 32.5935 112.109 35.1371L101.197 35.1626C101.757 32.6953 103.817 31.4489 106.742 31.4489Z" fill="white"/>
<path d="M143.39 25.7766L138.456 40.0209L133.191 25.7766H130.189L124.898 40.0209L119.989 25.7766H116.733L123.27 43.5819H126.399L131.664 29.2105L136.904 43.5819H140.058L146.57 25.7766H143.39ZM150.964 27.7352C152.058 27.7352 152.846 26.9976 152.846 26.0819C152.846 25.1153 152.058 24.4285 150.964 24.4285C149.87 24.4285 149.056 25.1153 149.056 26.0819C149.056 26.9976 149.87 27.7352 150.964 27.7352ZM152.465 29.6429H149.514V43.5819H152.465V29.6429ZM164.16 35.188C161.312 35.01 159.099 34.7556 159.099 33.3312C159.099 31.805 161.719 31.4235 163.601 31.4235C166.144 31.4489 168.001 32.212 169.349 33.2549L170.901 31.3217C169.273 30.1262 166.602 29.1088 163.753 29.1088C159.073 29.1088 156.275 30.7876 156.275 33.5092C156.275 36.4853 159.887 37.3755 163.677 37.6553C166.958 37.9097 168.764 38.3421 168.764 39.7411C168.764 41.1401 166.78 41.8014 164.211 41.8014C161.235 41.8014 158.971 40.8857 157.344 39.4867L155.741 41.2418C157.751 42.9969 160.727 44.1161 164.135 44.1161C169.044 44.1161 171.588 42.0812 171.588 39.4867C171.588 36.6633 168.434 35.4932 164.16 35.188ZM176.807 37.2738H190.644C190.695 37.1212 190.721 36.9431 190.721 36.6124C190.721 31.7287 187.465 29.1088 182.454 29.1088C177.087 29.1088 173.882 32.0085 173.882 36.6379C173.882 41.2164 177.087 44.1161 182.657 44.1161C185.913 44.1161 188.33 43.3276 190.237 41.6234L188.508 39.7665C186.982 41.1146 185.379 41.776 182.81 41.776C179.3 41.776 177.087 40.3007 176.807 37.2738ZM182.479 31.4489C185.227 31.4489 187.211 32.5935 187.846 35.1371L176.934 35.1626C177.494 32.6953 179.554 31.4489 182.479 31.4489Z" fill="#059669"/>
</svg>
