<svg width="209" height="69" viewBox="0 0 209 69" fill="none" xmlns="http://www.w3.org/2000/svg">
<rect y="0.163879" width="208.173" height="68.1639" rx="34.0819" fill="white"/>
<path d="M29.5711 35.3733L32.9543 38.7565L38.5928 30.8625M34.082 20.2834C30.8485 23.3457 26.4821 25.2239 21.6771 25.2239C21.6008 25.2239 21.5246 25.2235 21.4484 25.2225C20.865 26.997 20.5494 28.8929 20.5494 30.8626C20.5494 39.2701 26.2997 46.3345 34.082 48.3375C41.8642 46.3345 47.6145 39.2701 47.6145 30.8626C47.6145 28.8929 47.2989 26.997 46.7155 25.2225C46.6394 25.2235 46.5631 25.2239 46.4868 25.2239C41.6818 25.2239 37.3155 23.3457 34.082 20.2834Z" stroke="#10B981" stroke-width="2.25542" stroke-linecap="round" stroke-linejoin="round"/>
<path d="M76.2549 28.6367V25.9405H58.8311V43.7458H61.8835V36.5982H74.0419V33.8766H61.8835V28.6367H76.2549ZM81.4369 27.8991C82.5307 27.8991 83.3192 27.1614 83.3192 26.2457C83.3192 25.2791 82.5307 24.5924 81.4369 24.5924C80.3431 24.5924 79.5292 25.2791 79.5292 26.2457C79.5292 27.1614 80.3431 27.8991 81.4369 27.8991ZM82.9376 29.8068H79.987V43.7458H82.9376V29.8068ZM90.5126 43.7458V36.0386C91.4538 33.4187 93.9974 32.1215 97.1006 32.1215V29.527C94.2263 29.527 91.6318 30.7479 90.5126 32.9863V29.8068H87.5366V43.7458H90.5126ZM101.07 37.4376H114.907C114.958 37.285 114.984 37.107 114.984 36.7763C114.984 31.8925 111.728 29.2726 106.717 29.2726C101.35 29.2726 98.1449 32.1723 98.1449 36.8017C98.1449 41.3802 101.35 44.2799 106.92 44.2799C110.176 44.2799 112.593 43.4914 114.5 41.7872L112.771 39.9304C111.244 41.2785 109.642 41.9398 107.073 41.9398C103.563 41.9398 101.35 40.4645 101.07 37.4376ZM106.742 31.6127C109.489 31.6127 111.473 32.7574 112.109 35.301L101.197 35.3264C101.757 32.8591 103.817 31.6127 106.742 31.6127Z" fill="#252525"/>
<path d="M143.39 25.9405L138.456 40.1847L133.191 25.9405H130.189L124.898 40.1847L119.989 25.9405H116.733L123.27 43.7458H126.399L131.664 29.3744L136.904 43.7458H140.058L146.57 25.9405H143.39ZM150.964 27.8991C152.058 27.8991 152.846 27.1614 152.846 26.2457C152.846 25.2791 152.058 24.5924 150.964 24.5924C149.87 24.5924 149.056 25.2791 149.056 26.2457C149.056 27.1614 149.87 27.8991 150.964 27.8991ZM152.465 29.8068H149.514V43.7458H152.465V29.8068ZM164.16 35.3519C161.312 35.1738 159.099 34.9194 159.099 33.495C159.099 31.9689 161.719 31.5873 163.601 31.5873C166.144 31.6127 168.001 32.3758 169.349 33.4187L170.901 31.4856C169.273 30.2901 166.602 29.2726 163.753 29.2726C159.073 29.2726 156.275 30.9514 156.275 33.6731C156.275 36.6491 159.887 37.5394 163.677 37.8192C166.958 38.0735 168.764 38.5059 168.764 39.9049C168.764 41.3039 166.78 41.9653 164.211 41.9653C161.235 41.9653 158.971 41.0496 157.344 39.6506L155.741 41.4057C157.751 43.1608 160.727 44.2799 164.135 44.2799C169.044 44.2799 171.588 42.2451 171.588 39.6506C171.588 36.8272 168.434 35.6571 164.16 35.3519ZM176.807 37.4376H190.644C190.695 37.285 190.721 37.107 190.721 36.7763C190.721 31.8925 187.465 29.2726 182.454 29.2726C177.087 29.2726 173.882 32.1723 173.882 36.8017C173.882 41.3802 177.087 44.2799 182.657 44.2799C185.913 44.2799 188.33 43.4914 190.237 41.7872L188.508 39.9304C186.982 41.2785 185.379 41.9398 182.81 41.9398C179.3 41.9398 177.087 40.4645 176.807 37.4376ZM182.479 31.6127C185.227 31.6127 187.211 32.7574 187.846 35.301L176.934 35.3264C177.494 32.8591 179.554 31.6127 182.479 31.6127Z" fill="#059669"/>
</svg>
